<?xml version="1.0" encoding="UTF-8"?>
<svg id="Layer_1" data-name="Layer 1" xmlns="http://www.w3.org/2000/svg" version="1.1" viewBox="0 0 766 200">
  <defs>
    <style>
      .cls-1, .cls-2 {
        fill: #ffbd1d;
      }

      .cls-1, .cls-2, .cls-3 {
        stroke-width: 0px;
      }

      .cls-2 {
        fill-rule: evenodd;
      }

      .cls-3 {
        fill: #2c67d3;
      }
    </style>
  </defs>
  <path class="cls-3" d="M144.8,0v115.9c0,36.1-22.1,66.9-53.1,78.8-8.9,3.4-18.5,5.3-28.5,5.3-25.5,0-48.2-12-63.2-30.8l41.1-34.7c5.2,6.6,13.2,10.8,22.1,10.8,15.8,0,28.5-13.1,28.5-29.4V0h53.1Z"/>
  <circle class="cls-1" cx="265.5" cy="100" r="100"/>
  <path class="cls-2" d="M565.5,100C565.5,44.8,610.3,0,665.5,0s100,44.8,100,100-44.8,100-100,100-100-44.8-100-100ZM702.3,159.4c10.7-6.6,19.4-16,25.2-27.2,1.8-3.4.4-7.6-3-9.4-3.4-1.8-7.6-.4-9.4,3-4.6,8.9-11.6,16.5-20.2,21.8-8.5,5.3-18.6,8.3-29.4,8.3s-20.9-3-29.4-8.3c-8.5-5.3-15.6-12.9-20.2-21.8-1.8-3.4-6-4.7-9.4-3-3.4,1.8-4.7,6-3,9.4,5.8,11.2,14.6,20.6,25.2,27.2,10.6,6.6,23.3,10.4,36.7,10.4,13.5,0,26.1-3.8,36.8-10.4Z"/>
  <path class="cls-3" d="M544.8,100c0,55.2-44.5,100-99.5,100h-59.1V0h59.1C500.3,0,544.8,44.8,544.8,100Z"/>
</svg>